<?xml version="1.0" encoding="UTF-8" standalone="no"?>
<!DOCTYPE svg PUBLIC "-//W3C//DTD SVG 1.1//EN"
 "http://www.w3.org/Graphics/SVG/1.1/DTD/svg11.dtd">
<!-- Generated by graphviz version 2.42.4 (0)
 -->
<!-- Title: snakemake_dag Pages: 1 -->
<svg width="442pt" height="310pt"
 viewBox="0.00 0.00 442.00 310.00" xmlns="http://www.w3.org/2000/svg" xmlns:xlink="http://www.w3.org/1999/xlink">
<g id="graph0" class="graph" transform="scale(1 1) rotate(0) translate(4 306)">
<title>snakemake_dag</title>
<polygon fill="white" stroke="transparent" points="-4,4 -4,-306 438,-306 438,4 -4,4"/>
<!-- nfcore -->
<g id="node1" class="node">
<title>nfcore</title>
<path fill="#eef4ff" stroke="black" stroke-width="1.2" stroke-dasharray="5,2" d="M196.33,-302C196.33,-302 123.67,-302 123.67,-302 118.83,-302 114,-297.17 114,-292.33 114,-292.33 114,-282.67 114,-282.67 114,-277.83 118.83,-273 123.67,-273 123.67,-273 196.33,-273 196.33,-273 201.17,-273 206,-277.83 206,-282.67 206,-282.67 206,-292.33 206,-292.33 206,-297.17 201.17,-302 196.33,-302"/>
<text text-anchor="middle" x="160" y="-284.7" font-family="Helvetica,sans-Serif" font-size="11.00">nf&#45;core/rnaseq</text>
</g>
<!-- multiqc -->
<g id="node2" class="node">
<title>multiqc</title>
<path fill="#eef4ff" stroke="black" stroke-width="1.2" stroke-dasharray="5,2" d="M104.33,-210.5C104.33,-210.5 61.67,-210.5 61.67,-210.5 56.83,-210.5 52,-205.67 52,-200.83 52,-200.83 52,-191.17 52,-191.17 52,-186.33 56.83,-181.5 61.67,-181.5 61.67,-181.5 104.33,-181.5 104.33,-181.5 109.17,-181.5 114,-186.33 114,-191.17 114,-191.17 114,-200.83 114,-200.83 114,-205.67 109.17,-210.5 104.33,-210.5"/>
<text text-anchor="middle" x="83" y="-193.2" font-family="Helvetica,sans-Serif" font-size="11.00">MultiQC</text>
</g>
<!-- nfcore&#45;&gt;multiqc -->
<g id="edge1" class="edge">
<title>nfcore&#45;&gt;multiqc</title>
<path fill="none" stroke="#888888" stroke-width="1.2" d="M148.31,-272.91C135.53,-258.06 114.93,-234.12 100.29,-217.1"/>
<polygon fill="#888888" stroke="#888888" stroke-width="1.2" points="102.14,-214.96 94.8,-210.72 97.9,-218.61 102.14,-214.96"/>
</g>
<!-- counts -->
<g id="node3" class="node">
<title>counts</title>
<path fill="#fff8dc" stroke="black" stroke-width="1.2" stroke-dasharray="5,2" d="M312.83,-212C312.83,-212 161.17,-212 161.17,-212 155.83,-212 150.5,-206.67 150.5,-201.33 150.5,-201.33 150.5,-190.67 150.5,-190.67 150.5,-185.33 155.83,-180 161.17,-180 161.17,-180 312.83,-180 312.83,-180 318.17,-180 323.5,-185.33 323.5,-190.67 323.5,-190.67 323.5,-201.33 323.5,-201.33 323.5,-206.67 318.17,-212 312.83,-212"/>
<text text-anchor="middle" x="237" y="-199.2" font-family="Helvetica,sans-Serif" font-size="11.00">salmon.merged.</text>
<text text-anchor="middle" x="237" y="-187.2" font-family="Helvetica,sans-Serif" font-size="11.00">gene_counts_length_scaled.tsv</text>
</g>
<!-- nfcore&#45;&gt;counts -->
<g id="edge2" class="edge">
<title>nfcore&#45;&gt;counts</title>
<path fill="none" stroke="#888888" stroke-width="1.2" d="M171.69,-272.91C184.1,-258.49 203.88,-235.5 218.42,-218.6"/>
<polygon fill="#888888" stroke="#888888" stroke-width="1.2" points="220.81,-220.11 223.9,-212.22 216.56,-216.46 220.81,-220.11"/>
</g>
<!-- multiqc&#45;&gt;counts -->
<!-- qc -->
<g id="node4" class="node">
<title>qc</title>
<path fill="#f5f5f5" stroke="black" stroke-width="1.2" d="M130.33,-119C130.33,-119 95.67,-119 95.67,-119 90.83,-119 86,-114.17 86,-109.33 86,-109.33 86,-99.67 86,-99.67 86,-94.83 90.83,-90 95.67,-90 95.67,-90 130.33,-90 130.33,-90 135.17,-90 140,-94.83 140,-99.67 140,-99.67 140,-109.33 140,-109.33 140,-114.17 135.17,-119 130.33,-119"/>
<text text-anchor="middle" x="113" y="-101.7" font-family="Helvetica,sans-Serif" font-size="11.00">QC</text>
</g>
<!-- multiqc&#45;&gt;qc -->
<g id="edge3" class="edge">
<title>multiqc&#45;&gt;qc</title>
<path fill="none" stroke="#888888" stroke-width="1.2" d="M87.56,-181.41C92.4,-166.95 100.13,-143.88 105.8,-126.97"/>
<polygon fill="#888888" stroke="#888888" stroke-width="1.2" points="108.51,-127.7 108.4,-119.22 103.2,-125.92 108.51,-127.7"/>
</g>
<!-- counts&#45;&gt;qc -->
<g id="edge4" class="edge">
<title>counts&#45;&gt;qc</title>
<path fill="none" stroke="#888888" stroke-width="1.2" d="M215.97,-179.82C194.67,-164.45 161.72,-140.66 138.85,-124.16"/>
<polygon fill="#888888" stroke="#888888" stroke-width="1.2" points="140.22,-121.7 132.1,-119.29 136.95,-126.24 140.22,-121.7"/>
</g>
<!-- exploratory -->
<g id="node5" class="node">
<title>exploratory</title>
<path fill="#f5f5f5" stroke="black" stroke-width="1.2" d="M340.33,-119C340.33,-119 283.67,-119 283.67,-119 278.83,-119 274,-114.17 274,-109.33 274,-109.33 274,-99.67 274,-99.67 274,-94.83 278.83,-90 283.67,-90 283.67,-90 340.33,-90 340.33,-90 345.17,-90 350,-94.83 350,-99.67 350,-99.67 350,-109.33 350,-109.33 350,-114.17 345.17,-119 340.33,-119"/>
<text text-anchor="middle" x="312" y="-101.7" font-family="Helvetica,sans-Serif" font-size="11.00">exploratory</text>
</g>
<!-- counts&#45;&gt;exploratory -->
<g id="edge5" class="edge">
<title>counts&#45;&gt;exploratory</title>
<path fill="none" stroke="#888888" stroke-width="1.2" d="M249.72,-179.82C262.27,-164.85 281.51,-141.89 295.28,-125.45"/>
<polygon fill="#888888" stroke="#888888" stroke-width="1.2" points="297.46,-127.22 300.45,-119.29 293.16,-123.62 297.46,-127.22"/>
</g>
<!-- deseq2 -->
<g id="node6" class="node">
<title>deseq2</title>
<path fill="#f5f5f5" stroke="black" stroke-width="1.2" d="M228.33,-119C228.33,-119 185.67,-119 185.67,-119 180.83,-119 176,-114.17 176,-109.33 176,-109.33 176,-99.67 176,-99.67 176,-94.83 180.83,-90 185.67,-90 185.67,-90 228.33,-90 228.33,-90 233.17,-90 238,-94.83 238,-99.67 238,-99.67 238,-109.33 238,-109.33 238,-114.17 233.17,-119 228.33,-119"/>
<text text-anchor="middle" x="207" y="-101.7" font-family="Helvetica,sans-Serif" font-size="11.00">DESeq2</text>
</g>
<!-- counts&#45;&gt;deseq2 -->
<g id="edge6" class="edge">
<title>counts&#45;&gt;deseq2</title>
<path fill="none" stroke="#888888" stroke-width="1.2" d="M231.91,-179.82C227.07,-165.38 219.74,-143.5 214.28,-127.22"/>
<polygon fill="#888888" stroke="#888888" stroke-width="1.2" points="216.82,-125.98 211.62,-119.29 211.51,-127.76 216.82,-125.98"/>
</g>
<!-- qc&#45;&gt;deseq2 -->
<!-- deseq2&#45;&gt;exploratory -->
<!-- gsea -->
<g id="node7" class="node">
<title>gsea</title>
<path fill="#f5f5f5" stroke="black" stroke-width="1.2" d="M44.33,-29C44.33,-29 9.67,-29 9.67,-29 4.83,-29 0,-24.17 0,-19.33 0,-19.33 0,-9.67 0,-9.67 0,-4.83 4.83,0 9.67,0 9.67,0 44.33,0 44.33,0 49.17,0 54,-4.83 54,-9.67 54,-9.67 54,-19.33 54,-19.33 54,-24.17 49.17,-29 44.33,-29"/>
<text text-anchor="middle" x="27" y="-11.7" font-family="Helvetica,sans-Serif" font-size="11.00">GSEA</text>
</g>
<!-- deseq2&#45;&gt;gsea -->
<g id="edge7" class="edge">
<title>deseq2&#45;&gt;gsea</title>
<path fill="none" stroke="#888888" stroke-width="1.2" d="M179.27,-89.94C147.64,-74.48 95.88,-49.18 61.63,-32.43"/>
<polygon fill="#888888" stroke="#888888" stroke-width="1.2" points="62.59,-29.78 54.17,-28.78 60.13,-34.81 62.59,-29.78"/>
</g>
<!-- ora -->
<g id="node8" class="node">
<title>ora</title>
<path fill="#f5f5f5" stroke="black" stroke-width="1.2" d="M134.33,-29C134.33,-29 99.67,-29 99.67,-29 94.83,-29 90,-24.17 90,-19.33 90,-19.33 90,-9.67 90,-9.67 90,-4.83 94.83,0 99.67,0 99.67,0 134.33,0 134.33,0 139.17,0 144,-4.83 144,-9.67 144,-9.67 144,-19.33 144,-19.33 144,-24.17 139.17,-29 134.33,-29"/>
<text text-anchor="middle" x="117" y="-11.7" font-family="Helvetica,sans-Serif" font-size="11.00">ORA</text>
</g>
<!-- deseq2&#45;&gt;ora -->
<g id="edge8" class="edge">
<title>deseq2&#45;&gt;ora</title>
<path fill="none" stroke="#888888" stroke-width="1.2" d="M192.94,-89.75C177.88,-75.03 153.86,-51.54 136.87,-34.93"/>
<polygon fill="#888888" stroke="#888888" stroke-width="1.2" points="138.64,-32.74 130.96,-29.15 134.73,-36.75 138.64,-32.74"/>
</g>
<!-- tfea -->
<g id="node9" class="node">
<title>tfea</title>
<path fill="#f5f5f5" stroke="black" stroke-width="1.2" d="M224.33,-29C224.33,-29 189.67,-29 189.67,-29 184.83,-29 180,-24.17 180,-19.33 180,-19.33 180,-9.67 180,-9.67 180,-4.83 184.83,0 189.67,0 189.67,0 224.33,0 224.33,0 229.17,0 234,-4.83 234,-9.67 234,-9.67 234,-19.33 234,-19.33 234,-24.17 229.17,-29 224.33,-29"/>
<text text-anchor="middle" x="207" y="-11.7" font-family="Helvetica,sans-Serif" font-size="11.00">TFEA</text>
</g>
<!-- deseq2&#45;&gt;tfea -->
<g id="edge9" class="edge">
<title>deseq2&#45;&gt;tfea</title>
<path fill="none" stroke="#888888" stroke-width="1.2" d="M207,-89.75C207,-75.67 207,-53.59 207,-37.16"/>
<polygon fill="#888888" stroke="#888888" stroke-width="1.2" points="209.8,-37.15 207,-29.15 204.2,-37.15 209.8,-37.15"/>
</g>
<!-- progeny -->
<g id="node10" class="node">
<title>progeny</title>
<path fill="#f5f5f5" stroke="black" stroke-width="1.2" d="M334.33,-29C334.33,-29 279.67,-29 279.67,-29 274.83,-29 270,-24.17 270,-19.33 270,-19.33 270,-9.67 270,-9.67 270,-4.83 274.83,0 279.67,0 279.67,0 334.33,0 334.33,0 339.17,0 344,-4.83 344,-9.67 344,-9.67 344,-19.33 344,-19.33 344,-24.17 339.17,-29 334.33,-29"/>
<text text-anchor="middle" x="307" y="-11.7" font-family="Helvetica,sans-Serif" font-size="11.00">PROGENy</text>
</g>
<!-- deseq2&#45;&gt;progeny -->
<g id="edge10" class="edge">
<title>deseq2&#45;&gt;progeny</title>
<path fill="none" stroke="#888888" stroke-width="1.2" d="M222.62,-89.75C239.5,-74.9 266.51,-51.13 285.41,-34.5"/>
<polygon fill="#888888" stroke="#888888" stroke-width="1.2" points="287.33,-36.54 291.48,-29.15 283.63,-32.34 287.33,-36.54"/>
</g>
<!-- cmap -->
<g id="node11" class="node">
<title>cmap</title>
<path fill="#f5f5f5" stroke="black" stroke-width="1.2" d="M424.33,-29C424.33,-29 389.67,-29 389.67,-29 384.83,-29 380,-24.17 380,-19.33 380,-19.33 380,-9.67 380,-9.67 380,-4.83 384.83,0 389.67,0 389.67,0 424.33,0 424.33,0 429.17,0 434,-4.83 434,-9.67 434,-9.67 434,-19.33 434,-19.33 434,-24.17 429.17,-29 424.33,-29"/>
<text text-anchor="middle" x="407" y="-11.7" font-family="Helvetica,sans-Serif" font-size="11.00">cMap</text>
</g>
<!-- deseq2&#45;&gt;cmap -->
<g id="edge11" class="edge">
<title>deseq2&#45;&gt;cmap</title>
<path fill="none" stroke="#888888" stroke-width="1.2" d="M237.81,-89.94C274.02,-74.01 333.98,-47.63 371.94,-30.93"/>
<polygon fill="#888888" stroke="#888888" stroke-width="1.2" points="373.5,-33.3 379.69,-27.52 371.24,-28.18 373.5,-33.3"/>
</g>
<!-- gsea&#45;&gt;ora -->
<!-- ora&#45;&gt;tfea -->
<!-- tfea&#45;&gt;progeny -->
<!-- progeny&#45;&gt;cmap -->
</g>
</svg>
